<svg xmlns="http://www.w3.org/2000/svg" viewBox="0 0 24 24" fill="currentColor">
  <path d="M12 2c.552 0 1 .448 1 1v2.382l1.447-1.447a1 1 0 0 1 1.414 0l2.828 2.828a1 1 0 0 1 0 1.414L18.382 7H21a1 1 0 0 1 1 1v3.382l1.447-1.447a1 1 0 0 1 1.414 0l.707.707a1 1 0 0 1 0 1.414l-2.828 2.828a1 1 0 0 1-1.414 0L19 14.618V17a1 1 0 0 1-1 1h-3.382l1.447 1.447a1 1 0 0 1 0 1.414l-.707.707a1 1 0 0 1-1.414 0l-2.828-2.828a1 1 0 0 1 0-1.414L7 16.382V19a1 1 0 0 1-1 1H2.618l1.447 1.447a1 1 0 0 1 0 1.414l-.707.707a1 1 0 0 1-1.414 0L.116 20.116a1 1 0 0 1 0-1.414L2.944 15.874a1 1 0 0 1 1.414 0L7 17.618V15a1 1 0 0 1 1-1h3.382l-1.447-1.447a1 1 0 0 1 0-1.414l.707-.707a1 1 0 0 1 1.414 0l2.828 2.828a1 1 0 0 1 0 1.414L17 16.382V13a1 1 0 0 1 1-1h3.382l-1.447-1.447a1 1 0 0 1 0-1.414l.707-.707a1 1 0 0 1 1.414 0l2.828 2.828a1 1 0 0 1 0 1.414L21.056 20.126a1 1 0 0 1-1.414 0L17 18.382V21a1 1 0 0 1-1 1h-3.382l1.447 1.447a1 1 0 0 1 0 1.414l-.707.707a1 1 0 0 1-1.414 0l-2.828-2.828a1 1 0 0 1 0-1.414L7 22.382V21a1 1 0 0 1-1-1H2.618l1.447 1.447a1 1 0 0 1 0 1.414l-.707.707a1 1 0 0 1-1.414 0L.116 23.116a1 1 0 0 1 0-1.414L2.944 18.874a1 1 0 0 1 1.414 0L7 20.618V19a1 1 0 0 1 1-1h3.382l-1.447-1.447a1 1 0 0 1 0-1.414l.707-.707a1 1 0 0 1 1.414 0l2.828 2.828a1 1 0 0 1 0 1.414L17 22.382V21a1 1 0 0 1-1-1h-3.382l1.447-1.447a1 1 0 0 1 0-1.414l-.707-.707a1 1 0 0 1-1.414 0l-2.828 2.828a1 1 0 0 1 0 1.414L7 23.382V21a1 1 0 0 1-1-1H2.618l1.447 1.447a1 1 0 0 1 0 1.414l-.707.707a1 1 0 0 1-1.414 0L.116 22.116a1 1 0 0 1 0-1.414L2.944 17.874a1 1 0 0 1 1.414 0L7 19.618V17a1 1 0 0 1 1-1h3.382l-1.447-1.447a1 1 0 0 1 0-1.414l.707-.707a1 1 0 0 1 1.414 0l2.828 2.828a1 1 0 0 1 0 1.414L17 20.382V17a1 1 0 0 1-1-1h-3.382l1.447-1.447a1 1 0 0 1 0-1.414l-.707-.707a1 1 0 0 1-1.414 0l-2.828 2.828a1 1 0 0 1 0 1.414L7 18.382V17a1 1 0 0 1-1-1H2.618l1.447 1.447a1 1 0 0 1 0 1.414l-.707.707a1 1 0 0 1-1.414 0L.116 21.116a1 1 0 0 1 0-1.414L2.944 16.874a1 1 0 0 1 1.414 0L7 18.618V17a1 1 0 0 1 1-1h3.382l-1.447-1.447a1 1 0 0 1 0-1.414l.707-.707a1 1 0 0 1 1.414 0l2.828 2.828a1 1 0 0 1 0 1.414L17 18.382V17a1 1 0 0 1-1-1h-3.382l1.447-1.447a1 1 0 0 1 0-1.414l-.707-.707a1 1 0 0 1-1.414 0l-2.828 2.828a1 1 0 0 1 0 1.414L7 16.382V15a1 1 0 0 1-1-1H2.618l1.447 1.447a1 1 0 0 1 0 1.414l-.707.707a1 1 0 0 1-1.414 0L.116 19.116a1 1 0 0 1 0-1.414L2.944 14.874a1 1 0 0 1 1.414 0L7 16.618V15a1 1 0 0 1 1-1h3.382l-1.447-1.447a1 1 0 0 1 0-1.414l.707-.707a1 1 0 0 1 1.414 0l2.828 2.828a1 1 0 0 1 0 1.414L17 16.382V15a1 1 0 0 1-1-1h-3.382l1.447-1.447a1 1 0 0 1 0-1.414l-.707-.707a1 1 0 0 1-1.414 0l-2.828 2.828a1 1 0 0 1 0 1.414L7 14.382V13a1 1 0 0 1-1-1H2.618l1.447 1.447a1 1 0 0 1 0 1.414l-.707.707a1 1 0 0 1-1.414 0L.116 17.116a1 1 0 0 1 0-1.414L2.944 12.874a1 1 0 0 1 1.414 0L7 14.618V13a1 1 0 0 1 1-1h3.382l-1.447-1.447a1 1 0 0 1 0-1.414l.707-.707a1 1 0 0 1 1.414 0l2.828 2.828a1 1 0 0 1 0 1.414L17 12.382V11a1 1 0 0 1-1-1h-3.382l1.447-1.447a1 1 0 0 1 0-1.414l-.707-.707a1 1 0 0 1-1.414 0l-2.828 2.828a1 1 0 0 1 0 1.414L7 10.382V9a1 1 0 0 1-1-1H2.618l1.447 1.447a1 1 0 0 1 0 1.414l-.707.707a1 1 0 0 1-1.414 0L.116 13.116a1 1 0 0 1 0-1.414L2.944 8.874a1 1 0 0 1 1.414 0L7 10.618V9a1 1 0 0 1 1-1h3.382l-1.447-1.447a1 1 0 0 1 0-1.414l.707-.707a1 1 0 0 1 1.414 0l2.828 2.828a1 1 0 0 1 0 1.414L17 8.382V7a1 1 0 0 1-1-1h-3.382l1.447-1.447a1 1 0 0 1 0-1.414l-.707-.707a1 1 0 0 1-1.414 0l-2.828 2.828a1 1 0 0 1 0 1.414L7 6.382V5a1 1 0 0 1-1-1H2.618l1.447 1.447a1 1 0 0 1 0 1.414l-.707.707a1 1 0 0 1-1.414 0L.116 9.116a1 1 0 0 1 0-1.414L2.944 4.874a1 1 0 0 1 1.414 0L7 6.618V5a1 1 0 0 1 1-1h3.382l-1.447-1.447a1 1 0 0 1 0-1.414l.707-.707a1 1 0 0 1 1.414 0l2.828 2.828a1 1 0 0 1 0 1.414L17 4.382V3a1 1 0 0 1-1-1h-3.382l1.447-1.447a1 1 0 0 1 0-1.414l-.707-.707a1 1 0 0 1-1.414 0L.116 5.116a1 1 0 0 1 0-1.414L2.944.874a1 1 0 0 1 1.414 0L7 2.618V1a1 1 0 0 1 1-1h3.382l-1.447-1.447a1 1 0 0 1 0-1.414l.707-.707a1 1 0 0 1 1.414 0l2.828 2.828a1 1 0 0 1 0 1.414L17 0.382V1a1 1 0 0 1-1 1h-3.382l1.447 1.447a1 1 0 0 1 0 1.414l-.707.707a1 1 0 0 1-1.414 0l-2.828-2.828a1 1 0 0 1 0-1.414L7 1.382V1a1 1 0 0 1-1-1H2.618l1.447 1.447a1 1 0 0 1 0 1.414l-.707.707a1 1 0 0 1-1.414 0L.116 3.116a1 1 0 0 1 0-1.414L2.944.874a1 1 0 0 1 1.414 0L7 2.618V1a1 1 0 0 1 1-1h3.382l-1.447-1.447a1 1 0 0 1 0-1.414l.707-.707a1 1 0 0 1 1.414 0l2.828 2.828a1 1 0 0 1 0 1.414L17 0.382V1a1 1 0 0 1-1 1h-3.382l1.447 1.447a1 1 0 0 1 0 1.414l-.707.707a1 1 0 0 1-1.414 0l-2.828-2.828a1 1 0 0 1 0-1.414L7 1.382V1a1 1 0 0 1-1-1H2.618l1.447 1.447a1 1 0 0 1 0 1.414l-.707.707a1 1 0 0 1-1.414 0L.116 3.116a1 1 0 0 1 0-1.414L2.944.874a1 1 0 0 1 1.414 0L7 2.618V1a1 1 0 0 1 1-1h3.382l-1.447-1.447a1 1 0 0 1 0-1.414l.707-.707a1 1 0 0 1 1.414 0l2.828 2.828a1 1 0 0 1 0 1.414L17 0.382V1a1 1 0 0 1-1 1h-3.382l1.447 1.447a1 1 0 0 1 0 1.414l-.707.707a1 1 0 0 1-1.414 0l-2.828-2.828a1 1 0 0 1 0-1.414L7 1.382V1a1 1 0 0 1-1-1H2.618z"/>
</svg> 