<svg xmlns="http://www.w3.org/2000/svg" viewBox="0 0 24 24" fill="currentColor"><path d="M4.5 10.5c1.104 0 2-1.12 2-2.5s-.896-2.5-2-2.5-2 1.12-2 2.5.896 2.5 2 2.5zm15 0c1.104 0 2-1.12 2-2.5s-.896-2.5-2-2.5-2 1.12-2 2.5.896 2.5 2 2.5zm-12.5 7c1.381 0 2.5-1.12 2.5-2.5s-1.119-2.5-2.5-2.5-2.5 1.12-2.5 2.5 1.119 2.5 2.5 2.5zm10 0c1.381 0 2.5-1.12 2.5-2.5s-1.119-2.5-2.5-2.5-2.5 1.12-2.5 2.5 1.119 2.5 2.5 2.5zm-5-1c2.485 0 7-1.567 7-4.5 0-1.657-2.239-3-5-3s-5 1.343-5 3c0 2.933 4.515 4.5 7 4.5z"/></svg> 